<?xml version="1.0" encoding="UTF-8"?><svg width="160px" height="30px" viewBox="0 0 160 30" version="1.1" xmlns="http://www.w3.org/2000/svg" xmlns:xlink="http://www.w3.org/1999/xlink"><!--Generator: Sketch 59.1 (86144) - https://sketch.com--><title>logos / imprint / birkhauser</title><desc>Created with Sketch.</desc><g id="logos-/-imprint-/-birkhauser" stroke="none" stroke-width="1" fill="none" fill-rule="evenodd"><g id="Group-3" transform="translate(0.000000, 3.000000)" fill="#00285A"><path d="M128.196,12.221 C128.079,12.417 127.963,12.572 127.846,12.69 C127.689,12.807 127.533,12.923 127.378,12.923 C127.222,13.002 127.104,12.923 126.987,12.807 C126.715,12.534 126.402,12.417 126.052,12.417 C125.778,12.417 125.506,12.572 125.232,12.845 C124.921,13.158 124.647,13.625 124.452,14.211 L124.452,17.799 C124.452,18.15 124.452,18.384 124.53,18.579 C124.53,18.774 124.608,18.93 124.726,19.047 C124.843,19.164 125.037,19.242 125.271,19.242 C125.545,19.32 125.856,19.32 126.285,19.359 L126.285,20.139 L120.903,20.139 L120.903,19.359 C121.254,19.32 121.527,19.32 121.723,19.242 C121.917,19.242 122.073,19.164 122.19,19.047 C122.308,18.93 122.347,18.812 122.386,18.618 C122.425,18.423 122.425,18.15 122.425,17.799 L122.425,13.431 C122.425,13.08 122.425,12.845 122.386,12.65 C122.347,12.456 122.308,12.338 122.229,12.26 C122.112,12.144 121.995,12.065 121.801,12.026 C121.605,11.987 121.371,11.91 121.06,11.871 L121.06,11.207 C121.723,11.09 122.308,10.973 122.854,10.857 C123.399,10.739 123.945,10.544 124.452,10.349 L124.491,12.69 C124.843,12.026 125.193,11.481 125.661,11.051 C126.091,10.623 126.598,10.388 127.065,10.388 C127.417,10.388 127.729,10.505 127.963,10.739 C128.235,11.012 128.353,11.286 128.353,11.597 C128.353,11.832 128.313,12.026 128.196,12.221 Z M117.042,12.026 C116.691,11.597 116.262,11.363 115.755,11.363 C115.326,11.363 114.897,11.597 114.507,12.065 C114.078,12.534 113.805,13.196 113.688,14.016 L117.042,13.938 C117.237,13.899 117.394,13.859 117.433,13.82 C117.51,13.782 117.549,13.625 117.549,13.431 C117.549,12.923 117.394,12.456 117.042,12.026 Z M119.499,14.483 C119.421,14.601 119.266,14.717 119.031,14.756 C118.953,14.756 118.758,14.756 118.407,14.795 C118.057,14.834 117.627,14.874 117.12,14.874 C116.613,14.952 116.028,14.952 115.443,14.991 C114.819,15.03 114.195,15.03 113.571,15.068 C113.61,15.692 113.688,16.239 113.883,16.707 C114.078,17.175 114.313,17.564 114.585,17.837 C114.858,18.111 115.209,18.345 115.561,18.461 C115.911,18.618 116.301,18.696 116.691,18.696 C117.12,18.696 117.51,18.618 117.822,18.501 C118.173,18.345 118.524,18.072 118.914,17.682 L119.421,18.384 C118.758,19.203 118.134,19.71 117.472,19.983 C116.809,20.256 116.301,20.373 115.95,20.373 C115.248,20.373 114.624,20.256 114.117,20.022 C113.571,19.749 113.103,19.437 112.752,19.008 C112.362,18.579 112.089,18.111 111.894,17.564 C111.699,16.979 111.582,16.394 111.582,15.771 C111.582,15.03 111.699,14.328 111.972,13.665 C112.245,13.002 112.557,12.456 112.986,11.948 C113.415,11.441 113.922,11.09 114.468,10.817 C115.053,10.544 115.599,10.388 116.185,10.388 C116.652,10.388 117.081,10.466 117.51,10.662 C117.939,10.857 118.29,11.129 118.603,11.441 C118.914,11.753 119.109,12.105 119.305,12.534 C119.46,12.962 119.577,13.392 119.577,13.859 C119.577,14.132 119.538,14.367 119.499,14.483 Z M107.955,11.675 C107.564,11.286 107.097,11.09 106.59,11.09 C106.2,11.09 105.888,11.207 105.537,11.441 C105.186,11.675 104.952,12.026 104.952,12.417 C104.952,12.768 105.146,13.119 105.498,13.392 C105.849,13.704 106.316,13.977 106.862,14.211 C107.682,14.562 108.462,14.952 109.125,15.38 C109.749,15.849 110.061,16.434 110.061,17.253 C110.061,17.76 109.944,18.228 109.71,18.618 C109.476,19.008 109.164,19.32 108.773,19.632 C108.423,19.905 107.994,20.1 107.525,20.217 C107.058,20.333 106.59,20.412 106.122,20.412 C105.537,20.412 105.029,20.333 104.522,20.178 C104.016,19.983 103.626,19.866 103.431,19.671 C103.392,19.554 103.313,19.398 103.313,19.203 C103.235,18.969 103.235,18.735 103.196,18.461 C103.157,18.189 103.157,17.916 103.118,17.643 C103.08,17.37 103.08,17.097 103.08,16.863 L103.704,16.785 C103.938,17.487 104.289,18.111 104.757,18.696 C105.264,19.281 105.81,19.632 106.512,19.632 C106.862,19.632 107.253,19.515 107.604,19.242 C108.033,18.969 108.228,18.657 108.228,18.267 C108.228,17.603 107.604,16.94 106.395,16.356 C106.083,16.2 105.771,16.083 105.42,15.927 C105.068,15.732 104.679,15.498 104.366,15.264 C104.055,15.03 103.743,14.756 103.548,14.444 C103.353,14.093 103.235,13.704 103.235,13.274 C103.235,12.456 103.548,11.792 104.25,11.168 C104.913,10.584 105.81,10.311 106.94,10.311 C107.448,10.311 107.877,10.349 108.149,10.427 C108.462,10.505 108.735,10.584 109.047,10.7 C109.086,10.817 109.164,11.012 109.203,11.207 C109.242,11.402 109.32,11.636 109.358,11.91 C109.397,12.144 109.476,12.378 109.476,12.572 C109.554,12.807 109.554,12.962 109.554,13.08 L108.891,13.274 C108.618,12.611 108.306,12.105 107.955,11.675 Z M100.154,18.072 C100.193,18.267 100.232,18.384 100.311,18.501 C100.389,18.618 100.506,18.696 100.661,18.735 C100.856,18.774 101.091,18.812 101.363,18.852 L101.363,19.515 C100.778,19.632 100.193,19.749 99.687,19.866 C99.141,19.983 98.595,20.178 98.088,20.373 L98.088,18.812 C97.971,18.93 97.775,19.047 97.541,19.203 C97.308,19.398 97.073,19.593 96.762,19.71 C96.488,19.905 96.177,20.022 95.864,20.139 C95.553,20.256 95.24,20.333 94.968,20.333 C94.07,20.333 93.407,20.061 92.9,19.515 C92.394,18.969 92.12,18.228 92.12,17.331 L92.12,13.704 C92.12,13.314 92.12,13.002 92.081,12.807 C92.042,12.572 92.003,12.378 91.925,12.26 C91.809,12.144 91.691,12.026 91.496,11.987 C91.301,11.948 91.028,11.871 90.716,11.832 L90.716,11.168 C91.301,11.051 91.886,10.896 92.472,10.778 C93.057,10.662 93.563,10.505 94.07,10.311 L94.07,16.628 C94.07,17.331 94.266,17.877 94.538,18.267 C94.89,18.696 95.318,18.891 95.903,18.891 C96.255,18.891 96.645,18.774 97.034,18.579 C97.464,18.345 97.814,18.072 98.088,17.799 L98.088,13.704 C98.088,13.314 98.088,13.002 98.049,12.807 C98.01,12.572 97.971,12.378 97.893,12.26 C97.775,12.144 97.658,12.026 97.464,11.987 C97.269,11.948 96.995,11.871 96.684,11.832 L96.684,11.168 C97.269,11.051 97.893,10.896 98.477,10.778 C99.062,10.662 99.608,10.505 100.115,10.311 L100.115,17.292 C100.115,17.643 100.115,17.877 100.154,18.072 Z M87.713,8.243 C87.986,7.97 88.104,7.658 88.104,7.307 C88.104,6.917 87.986,6.605 87.713,6.332 C87.44,6.059 87.128,5.942 86.738,5.942 C86.387,5.942 86.075,6.059 85.802,6.332 C85.529,6.605 85.412,6.917 85.412,7.307 C85.412,7.658 85.529,7.97 85.802,8.243 C86.075,8.516 86.387,8.633 86.738,8.633 C87.128,8.633 87.44,8.516 87.713,8.243 Z M85.529,15.225 C85.178,15.42 84.866,15.576 84.632,15.692 C84.125,15.965 83.735,16.2 83.501,16.394 C83.267,16.628 83.149,16.94 83.149,17.331 C83.149,17.916 83.306,18.345 83.657,18.618 C84.008,18.891 84.436,18.969 84.905,18.774 C85.1,18.735 85.334,18.657 85.607,18.54 C85.88,18.423 86.153,18.228 86.348,18.033 L86.348,14.795 C86.153,14.913 85.88,15.03 85.529,15.225 Z M83.969,8.243 C84.242,7.97 84.359,7.658 84.359,7.307 C84.359,6.917 84.242,6.605 83.969,6.332 C83.696,6.059 83.384,5.942 82.994,5.942 C82.643,5.942 82.331,6.059 82.058,6.332 C81.785,6.605 81.668,6.917 81.668,7.307 C81.668,7.658 81.785,7.97 82.058,8.243 C82.331,8.516 82.643,8.633 82.994,8.633 C83.384,8.633 83.696,8.516 83.969,8.243 Z M87.401,20.217 C87.206,20.139 87.011,20.022 86.894,19.905 C86.738,19.749 86.621,19.593 86.543,19.476 C86.465,19.32 86.387,19.164 86.348,19.008 C85.919,19.281 85.49,19.593 84.983,19.866 C84.476,20.178 84.086,20.333 83.812,20.333 C82.955,20.333 82.292,20.061 81.824,19.515 C81.316,18.93 81.083,18.306 81.083,17.643 C81.083,17.097 81.2,16.628 81.473,16.239 C81.746,15.849 82.136,15.537 82.721,15.341 C83.033,15.225 83.384,15.107 83.735,14.991 C84.125,14.834 84.476,14.679 84.827,14.562 C85.178,14.444 85.451,14.289 85.724,14.171 C85.997,14.055 86.231,13.938 86.348,13.82 L86.348,13.119 C86.348,12.417 86.231,11.987 85.958,11.792 C85.685,11.597 85.334,11.519 84.905,11.519 C84.71,11.519 84.476,11.597 84.125,11.753 C83.774,11.948 83.54,12.105 83.423,12.221 C83.306,12.378 83.188,12.534 83.072,12.65 C82.955,12.807 82.838,13.041 82.76,13.392 C82.682,13.625 82.682,13.782 82.721,13.782 C82.721,13.859 82.604,13.859 82.409,13.859 C82.136,13.859 81.901,13.782 81.629,13.586 C81.355,13.392 81.239,13.119 81.239,12.845 C81.239,12.572 81.473,12.221 81.94,11.871 C82.292,11.597 82.799,11.324 83.462,11.012 C84.125,10.7 84.749,10.466 85.334,10.349 C86.153,10.349 86.777,10.584 87.284,10.973 C87.713,11.324 88.025,11.714 88.142,12.144 C88.298,12.611 88.376,13.158 88.376,13.743 L88.376,17.448 C88.376,17.955 88.454,18.267 88.571,18.423 C88.728,18.618 88.883,18.696 89.078,18.696 C89.313,18.696 89.546,18.618 89.819,18.501 L90.015,19.164 L88.104,20.333 C87.83,20.333 87.596,20.295 87.401,20.217 Z M78.47,19.047 C78.626,19.203 79.016,19.32 79.601,19.359 L79.601,20.139 L75.077,20.139 L75.077,19.359 C75.623,19.32 75.974,19.203 76.091,19.047 C76.247,18.891 76.325,18.501 76.325,17.877 L76.325,14.211 C76.325,12.456 75.583,11.559 74.102,11.559 C73.478,11.559 72.541,12.065 72.112,12.729 L72.112,17.877 C72.112,18.501 72.19,18.891 72.308,19.047 C72.424,19.203 72.736,19.32 73.283,19.359 L73.283,20.139 L68.563,20.139 L68.563,19.359 C69.227,19.32 69.655,19.203 69.812,19.047 C70.006,18.891 70.084,18.501 70.084,17.877 L70.084,8.048 C70.084,7.658 70.084,7.385 70.045,7.19 C70.006,6.995 69.967,6.839 69.851,6.722 C69.733,6.605 69.539,6.527 69.343,6.527 C69.109,6.449 68.797,6.449 68.407,6.41 L68.407,5.63 C69.07,5.591 69.733,5.474 70.396,5.318 C71.06,5.162 71.645,5.006 72.112,4.85 L72.112,11.559 C72.814,10.7 73.945,10.115 74.998,10.115 C77.104,10.115 78.235,11.481 78.235,13.547 L78.235,17.877 C78.235,18.501 78.313,18.891 78.47,19.047 Z M58.462,7.19 C58.423,6.995 58.384,6.839 58.267,6.722 C58.15,6.605 57.955,6.527 57.76,6.527 C57.526,6.449 57.214,6.449 56.824,6.41 L56.824,5.63 C57.487,5.591 58.15,5.474 58.813,5.318 C59.476,5.162 60.061,5.006 60.529,4.85 L60.529,14.055 C61.114,13.977 61.738,13.704 62.089,13.314 C62.323,13.119 63.064,12.456 63.22,12.221 C63.337,12.026 63.415,11.832 63.337,11.714 C63.337,11.597 63.064,11.481 62.596,11.441 L62.596,10.7 L67.354,10.505 L67.354,11.168 C66.925,11.247 66.77,11.363 66.496,11.441 C65.911,11.559 65.56,11.753 65.17,12.026 C64.624,12.378 63.337,13.392 63.064,13.704 L65.599,18.345 C65.872,18.812 66.145,18.891 66.457,19.047 C66.77,19.242 67.198,19.359 67.666,19.398 L67.666,20.139 L64.468,20.139 L61.738,15.225 C61.543,15.03 61.465,14.913 61.309,14.874 C61.153,14.834 61.036,14.795 60.919,14.795 C60.802,14.795 60.646,14.834 60.529,14.874 L60.529,17.877 C60.529,18.501 60.607,18.891 60.724,19.047 C60.841,19.203 61.192,19.32 61.738,19.359 L61.738,20.139 L56.98,20.139 L56.98,19.359 C57.643,19.32 58.072,19.203 58.228,19.047 C58.423,18.891 58.501,18.501 58.501,17.877 L58.501,8.087 C58.501,7.697 58.501,7.385 58.462,7.19 Z M56.278,12.221 C56.161,12.417 56.044,12.572 55.927,12.69 C55.771,12.807 55.615,12.923 55.459,12.923 C55.264,13.002 55.108,12.923 54.991,12.807 C54.796,12.534 54.484,12.417 54.055,12.417 C53.782,12.417 53.47,12.572 53.236,12.845 C52.924,13.158 52.69,13.625 52.495,14.211 L52.495,17.799 C52.495,18.15 52.495,18.384 52.573,18.579 C52.573,18.774 52.651,18.93 52.768,19.047 C52.885,19.164 53.08,19.242 53.314,19.242 C53.587,19.32 53.899,19.32 54.328,19.359 L54.328,20.139 L49.062,20.139 L49.062,19.359 C49.414,19.32 49.647,19.32 49.843,19.242 C50.038,19.242 50.194,19.164 50.31,19.047 C50.428,18.93 50.467,18.812 50.506,18.618 C50.545,18.423 50.545,18.15 50.545,17.799 L50.545,13.431 C50.545,13.08 50.545,12.845 50.506,12.65 C50.467,12.456 50.428,12.338 50.35,12.26 C50.232,12.144 50.116,12.065 49.959,12.026 C49.765,11.987 49.531,11.91 49.219,11.871 L49.219,11.207 C49.804,11.09 50.389,10.973 50.935,10.857 C51.48,10.739 51.988,10.544 52.495,10.349 L52.534,12.69 C52.885,12.026 53.275,11.481 53.743,11.051 C54.172,10.623 54.679,10.388 55.108,10.388 C55.498,10.388 55.81,10.505 56.044,10.739 C56.317,11.012 56.434,11.286 56.434,11.597 C56.434,11.832 56.395,12.026 56.278,12.221 Z M46.06,7.931 C46.332,7.658 46.45,7.346 46.45,6.995 C46.45,6.605 46.332,6.293 46.06,6.02 C45.787,5.747 45.475,5.63 45.084,5.63 C44.772,5.63 44.46,5.747 44.188,6.02 C43.915,6.293 43.797,6.605 43.797,6.995 C43.797,7.346 43.915,7.658 44.188,7.931 C44.46,8.204 44.772,8.321 45.084,8.321 C45.475,8.321 45.787,8.204 46.06,7.931 Z M46.372,19.008 C46.293,18.891 46.254,18.735 46.215,18.54 C46.177,18.345 46.177,18.072 46.177,17.721 L46.177,10.388 C45.669,10.584 45.123,10.739 44.578,10.857 C43.992,10.973 43.407,11.129 42.822,11.247 L42.822,11.91 C43.134,11.948 43.407,11.987 43.602,12.026 C43.797,12.065 43.915,12.105 44.031,12.221 C44.109,12.338 44.148,12.495 44.188,12.69 C44.227,12.845 44.188,13.158 44.227,13.547 L44.227,17.721 C44.227,18.423 44.148,18.852 43.954,19.047 C43.797,19.203 43.368,19.32 42.706,19.359 L42.706,20.139 L47.62,20.139 L47.62,19.359 C47.269,19.32 46.996,19.32 46.801,19.242 C46.605,19.242 46.488,19.124 46.372,19.008 Z M35.295,19.242 C37.128,19.242 38.883,18.461 38.883,16.122 C38.883,13.82 37.245,12.923 34.359,12.923 L33.267,12.923 L33.267,17.213 C33.267,18.891 33.774,19.281 35.295,19.242 Z M38.064,9.101 C38.064,7.463 37.05,6.332 34.944,6.332 C34.359,6.332 34.008,6.41 33.813,6.566 C33.579,6.683 33.267,6.956 33.267,7.658 L33.267,11.832 L34.398,11.832 C36.972,11.832 38.064,10.973 38.064,9.101 Z M41.34,15.81 C41.34,17.331 40.443,18.812 39.039,19.554 C37.83,20.217 35.958,20.139 34.086,20.139 L29.094,20.139 L29.094,19.359 C31.044,19.164 31.083,18.852 31.083,16.979 L31.083,8.438 C31.083,6.566 30.966,6.332 29.094,6.215 L29.094,5.474 L35.139,5.474 C36.933,5.474 38.22,5.747 39,6.254 C39.858,6.761 40.365,7.736 40.365,8.828 C40.365,10.935 38.727,11.832 37.323,12.183 L37.323,12.221 C39.78,12.572 41.34,13.586 41.34,15.81 L41.34,15.81 Z" id="Fill-4"/><path d="M16.225,7.385 C16.537,7.424 16.771,7.697 16.732,8.048 L16.03,13.119 C15.718,12.65 15.367,12.183 15.016,11.714 L15.561,7.853 C15.601,7.542 15.913,7.346 16.225,7.385 Z M11.974,5.747 C12.286,5.786 12.519,6.059 12.519,6.371 L12.325,8.555 C11.974,8.204 11.623,7.853 11.232,7.502 L11.35,6.293 C11.389,5.942 11.662,5.708 11.974,5.747 Z M10.686,10.311 C8.112,7.58 4.992,5.201 3.042,3.797 C2.925,3.68 2.691,3.446 2.574,3.329 C3.705,4.655 3.783,8.204 3.744,10.349 C3.705,13.625 3.705,16.707 6.552,18.774 C9.517,20.919 13.963,19.788 16.03,18.111 C15.718,17.292 15.289,16.473 14.821,15.692 C14.821,15.692 14.782,15.692 14.743,15.692 L7.527,15.692 C7.215,15.692 6.942,15.42 6.942,15.107 C6.942,14.795 7.215,14.523 7.527,14.523 L14.119,14.523 C13.417,13.469 12.598,12.456 11.779,11.481 L6.552,11.481 C6.24,11.481 5.967,11.207 5.967,10.896 C5.967,10.584 6.24,10.311 6.552,10.311 L10.686,10.311 Z M21.178,10.857 C21.529,10.817 21.841,11.09 21.841,11.441 C21.841,11.792 21.568,12.065 21.217,12.065 L21.178,12.065 C21.022,14.171 20.047,16.239 18.409,17.721 C18.253,17.331 18.097,16.979 17.941,16.589 C19.891,14.523 20.593,11.519 19.54,8.984 C18.097,5.435 13.885,4.889 9.478,4.187 C6.981,3.797 4.329,3.212 3.276,2.744 C4.134,3.212 4.134,3.251 4.368,3.407 C6.942,5.084 12.013,9.257 14.782,13.392 C18.019,18.228 18.37,21.777 18.175,24 L17.005,24 C17.161,22.401 16.927,20.802 16.459,19.242 C14.977,20.295 12.754,21.114 10.492,21.114 C8.893,21.114 7.254,20.724 5.89,19.71 C5.655,19.554 5.421,19.359 5.227,19.164 C5.109,19.281 4.953,19.359 4.758,19.359 C4.407,19.359 4.134,19.086 4.134,18.774 C4.134,18.579 4.251,18.423 4.368,18.306 C3.705,17.487 3.315,16.589 3.042,15.654 C2.652,15.771 2.262,15.459 2.262,15.068 C2.262,14.756 2.496,14.523 2.77,14.483 C2.613,13.508 2.574,12.534 2.574,11.559 C2.223,11.559 1.95,11.286 1.95,10.973 C1.95,10.623 2.223,10.349 2.574,10.349 C2.613,9.375 2.613,8.438 2.535,7.542 C2.184,7.58 1.872,7.307 1.872,6.917 C1.872,6.605 2.146,6.332 2.457,6.293 C2.067,3.836 1.599,2.861 0,1.301 C0.312,0.95 0.351,0.872 0.585,0.638 C2.574,1.808 4.992,2.237 7.06,2.666 C7.138,2.354 7.449,2.12 7.762,2.159 C8.112,2.159 8.386,2.51 8.308,2.822 C8.775,2.9 9.205,2.978 9.672,3.056 C10.296,3.134 10.959,3.212 11.583,3.329 C11.662,3.056 11.895,2.822 12.207,2.822 C12.598,2.822 12.871,3.173 12.792,3.524 C13.963,3.758 15.055,4.031 16.069,4.421 C16.147,4.187 16.381,4.031 16.654,4.031 C17.083,4.031 17.395,4.499 17.2,4.889 C18.136,5.396 18.994,6.02 19.657,6.878 C20.047,6.605 20.632,6.878 20.632,7.385 C20.632,7.619 20.515,7.814 20.32,7.892 C20.437,8.126 20.515,8.321 20.632,8.516 C20.944,9.296 21.1,10.076 21.178,10.857 L21.178,10.857 Z" id="Fill-1"/></g></g></svg>