<?xml version="1.0" encoding="utf-8"?><!DOCTYPE svg PUBLIC "-//W3C//DTD SVG 1.1//EN" "http://www.w3.org/Graphics/SVG/1.1/DTD/svg11.dtd"><svg version="1.1" xmlns="http://www.w3.org/2000/svg" width="229.2" height="109.3714" viewBox="0 0 229.2 109.3714"><g fill="#000000"><g><rect fill="#ffffff" width="229.2" height="109.3714" /></g><g transform="scale(0.1714,0.1714) translate(63,63)"><path d="M 423.45 5.65 L 421.55 4.7 L 413.55 2.85 L 411.65 1.9 L 407.9 0.95 L 405.55 0 L 401.3 4.7 L 398.5 3.8 L 396.15 3.8 L 393.3 4.25 L 390.5 3.8 L 389.55 4.7 L 386.75 6.6 L 386.75 8.5 L 385.3 9.4 L 384.4 9.4 L 382.05 9.9 L 379.7 9.4 L 377.3 8.5 L 372.6 8 L 370.25 8.5 L 369.35 8.95 L 368.4 9.9 L 367.9 10.85 L 367.9 15.05 L 366.95 15.55 L 366.5 16.95 L 365.55 18.85 Q 362.95 20.05 360.3 21.2 L 358.4 21.2 L 353.7 23.05 L 350.9 24.95 L 349 25.4 L 347.6 25.4 L 342.4 26.35 L 340.05 27.3 L 338.2 28.7 L 293 37.65 L 284.05 37.2 L 277.5 36.25 L 275.05 35.3 L 274.1 34.85 L 271.25 32.95 L 269.85 32.95 L 271.25 34.85 L 272.7 36.25 L 279.85 41.9 L 286.9 45.65 L 301.5 49.9 L 305.7 49.4 L 308.05 49.4 L 309.95 49.9 L 310.9 50.35 L 312.3 50.35 L 318.9 48.95 L 319.85 49.4 L 320.75 49.4 L 323.1 48.95 L 325 48 L 325.95 48 L 327.35 48.45 L 332.05 46.6 L 347.1 43.75 L 348.55 40 L 348.55 39.05 L 352.3 39.05 L 356.55 38.1 L 357 38.6 L 356.55 40 L 355.6 40.95 L 354.65 42.35 L 351.35 45.65 L 349.95 48.45 L 347.1 52.7 Q 346.2 53.2 345.25 53.65 L 344.75 54.1 L 343.8 56 L 342.9 56 L 341.95 57.9 L 339.6 60.25 L 338.2 61.2 L 338.2 63.05 L 337.7 64.45 L 334.9 65.9 L 334.4 66.8 L 334.4 67.75 L 333.95 68.25 L 333 68.25 L 330.65 71.55 L 320.75 81.9 L 319.85 82.35 L 318.9 83.3 L 318.4 84.25 L 309.95 93.15 L 285 123.3 L 285 124.2 L 284.05 125.15 L 283.15 125.65 L 283.15 127.05 L 280.8 128.95 L 278.9 131.3 L 274.55 135.5 L 270.35 141.15 L 256.7 155.75 L 255.3 155.75 L 254.35 156.2 L 252.9 158.1 L 251.5 159.5 L 250.55 159.5 L 249.15 159.05 L 247.75 159.5 L 245.4 163.3 L 244.95 164.7 L 244 165.65 L 242.55 166.55 L 242.1 167.5 L 240.7 168.45 L 239.3 171.75 L 237.85 174.1 L 236.95 174.55 L 235.5 175.05 L 236.45 176 L 236 176.9 L 234.1 178.35 L 233.15 180.7 L 232.7 183.5 L 231.75 186.35 L 231.3 187.25 L 230.35 188.2 L 230.8 200.45 L 231.3 203.75 L 232.2 206.55 L 234.1 208.9 L 236.45 210.8 L 237.4 211.25 L 238.8 210.8 L 241.65 209.4 L 243.5 208.9 L 245.4 207.95 L 248.2 205.15 L 253.4 198.55 L 254.35 194.8 L 260.45 191.05 L 261.85 189.6 L 262.8 188.2 L 263.75 185.4 L 265.65 183.05 L 268.9 177.85 L 269.85 177.4 L 270.35 176.45 L 271.75 175.05 L 272.7 173.15 L 273.15 172.7 L 274.1 172.2 L 275.05 172.2 L 276 171.75 L 278.4 168.45 L 279.35 168 L 280.3 168 L 279.35 167.05 L 281.7 165.15 L 282.65 164.7 L 284.05 164.7 L 285 163.75 L 285.95 162.35 L 286.9 159.05 L 288.3 158.55 L 289.25 158.1 L 292.05 153.85 L 293 153.4 L 294.4 153.4 L 295.85 151.05 L 297.25 149.65 L 298.65 147.75 L 300.55 144 L 303.85 139.3 L 309.95 134.1 L 308.55 133.65 L 297.25 142.55 L 293.5 144.95 L 293.5 144 L 294.4 143.05 L 295.85 140.7 L 297.7 138.8 L 298.65 136 L 308.05 124.7 L 309 122.8 L 316.05 116.25 L 317 114.8 L 318.4 112 L 319.35 112 L 320.3 111.5 L 320.75 111.5 L 320.3 110.6 L 324.05 107.3 L 330.65 100.25 L 333.45 96 L 335.35 95.5 L 338.65 92.25 L 340.05 90.35 L 341.45 88.95 L 343.35 87.5 L 345.25 87.05 L 345.7 85.65 L 347.6 83.75 L 348.55 83.75 L 350.4 83.3 L 355.6 77.65 L 363.7 70.6 L 365.55 68.25 L 366.95 65.9 L 367.9 65.9 L 369.35 64.95 L 370.25 64 L 370.25 63.05 L 371.7 62.6 L 372.6 62.1 L 374.5 60.7 L 376.4 58.8 L 377.8 57.9 L 378.75 55.55 L 379.7 55.05 L 381.1 55.05 L 382.05 53.65 L 383.45 52.25 L 391.45 46.6 L 392.85 44.7 L 394.25 43.75 L 395.65 42.35 L 396.6 40.95 L 398.5 40 L 402.25 37.2 L 406.95 35.3 L 407.9 35.75 L 408.4 35.75 L 409.8 34.35 L 411.2 33.4 L 412.15 32.95 L 413.1 32.95 L 414.95 31.05 L 416.85 29.65 L 418.25 28.25 L 419.65 25.9 L 422.5 23.05 L 424.85 19.75 L 425.8 17.9 L 426.75 13.65 L 426.25 11.3 L 425.3 9.4 L 424.85 7.55 L 424.35 6.6 L 423.45 5.65"></path><path d="M 161.55 110.6 L 147.45 103.05 L 139.9 101.15 L 137.55 101.15 L 133.8 100.25 L 129.1 99.75 L 127.2 98.8 L 123.45 98.8 L 119.7 97.9 L 118.75 97.9 L 117.8 98.35 L 117.35 97.4 L 116.4 96.95 L 114.95 97.4 L 113.55 97.4 L 112.6 96.95 L 112.15 96 L 110.75 96.45 L 109.8 96 L 107.45 96 L 106.5 95.5 L 105.45 94.6 L 102.65 94.1 L 101.7 93.65 L 101.25 93.15 L 100.75 91.3 L 99.8 89.4 L 98.9 88.45 L 99.35 87.5 L 98.4 85.65 L 97.45 85.15 L 96.05 84.7 L 94.2 85.15 L 91.35 85.15 L 89.95 84.7 L 88.55 83.75 L 87.6 84.25 L 86.2 83.75 L 85.25 83.3 L 83.85 83.3 L 83.85 84.25 L 81.95 86.1 L 80.55 87.05 L 78.65 87.05 L 77.25 88 L 73.45 89.9 L 73 91.3 L 72.55 92.25 L 71.1 94.1 L 69.25 96 L 68.3 98.35 L 69.25 98.8 L 70.65 101.65 L 70.65 103.5 L 71.6 104.95 L 72.55 105.85 L 73 106.8 L 73.45 109.15 L 73.45 111.5 L 73.95 114.35 L 74.9 116.7 L 74.9 121.4 L 75.35 123.75 L 75.35 125.15 L 76.3 126.1 L 76.75 127.05 L 77.25 128.45 L 78.2 128.45 L 78.65 128.95 L 79.6 130.35 L 80.55 133.65 L 82.4 134.1 L 87.1 136.45 L 88.55 136.95 L 89.95 136.95 L 91.8 136 L 92.75 136.95 L 94.2 137.4 L 99.35 137.4 L 102.2 137.85 L 103.6 136.45 L 105.45 135.5 L 106.95 135.05 L 108.4 133.65 L 109.35 131.75 L 114.05 128.95 L 116.85 128.95 L 118.25 128.45 L 119.2 129.4 L 119.2 132.2 L 120.15 137.85 L 119.7 138.8 L 119.2 140.2 L 118.75 149.15 L 117.8 153.4 L 117.35 154.8 L 116.4 156.7 L 117.35 157.65 L 116.4 159.05 L 114.95 160.45 L 114.05 161.85 L 113.55 163.3 L 112.6 164.2 L 110.25 169.85 L 108.4 170.8 L 105 173.65 L 102.65 176.45 L 100.75 180.2 L 100.3 182.1 L 100.3 184 L 99.8 186.35 L 99.8 188.7 L 99.35 190.55 L 98.9 191.5 L 97.95 192.45 L 97.95 199.5 L 98.9 206.1 L 97.95 207.05 L 98.9 207.95 L 98.9 210.8 L 99.35 212.7 L 99.35 213.15 L 98.9 213.15 L 98.9 214.1 L 99.8 213.15 L 103.1 217.85 L 103.6 218.3 L 104.55 218.3 L 105 220.2 L 105.45 221.15 L 106.5 221.6 L 107.9 221.6 L 110.25 222.1 L 111.7 222.55 L 113.1 223.5 L 114.5 223.5 L 116.4 223.95 L 122.05 226.8 L 123.9 227.25 L 125.3 227.25 L 126.25 228.2 L 129.55 230.1 L 130.95 231.95 L 133.8 238.55 L 133.8 239.95 L 134.25 241.4 L 135.65 244.2 L 135.2 244.65 L 135.2 245.6 L 136.15 248.45 L 136.15 249.4 L 135.65 249.85 L 136.6 252.2 L 135.65 255.95 L 131.9 261.6 L 128.6 268.2 L 127.7 269.6 L 126.75 270.1 L 126.75 271.95 L 125.3 273.35 L 122.5 275.25 L 121.1 278.1 L 114.5 285.15 L 114.95 286.1 L 114.05 287.95 L 112.6 288.45 L 112.15 289.35 L 113.1 290.8 L 113.1 291.7 L 112.15 292.2 L 111.7 292.65 L 109.8 293.15 L 109.35 293.6 L 109.35 294.55 L 107.45 296.45 L 106.95 295.5 L 106.5 296.45 L 105.45 297.35 L 104.05 298.3 L 103.1 298.8 L 103.1 300.2 L 103.6 301.6 L 100.3 303.95 L 97.95 307.25 L 95.1 314.8 L 94.65 314.8 L 93.25 313.35 L 93.25 312.4 L 94.2 311.5 L 93.7 311 L 91.35 313.35 L 91.35 314.8 L 90.4 317.15 L 89.45 315.7 L 85.25 323.25 L 84.75 323.25 L 84.3 323.7 L 83.85 324.65 L 83.85 325.6 L 83.35 327 L 81.95 326.55 L 81 327 L 79.1 330.75 L 78.2 331.7 L 77.25 332.2 L 75.35 334.55 L 72.55 338.75 L 68.75 342.55 L 66.9 343.95 L 66.4 345.35 L 64.55 347.25 L 62.65 348.2 L 62.2 349.1 L 62.2 350.05 L 54.2 357.6 L 51.35 359.45 L 44.75 367.1 L 22.2 386.85 L 18.8 387.8 L 16.9 389.7 L 13.65 389.7 L 7.5 390.6 L 4.2 390.6 L 2.8 392.05 L 1.85 393.9 L 1.4 395.8 L 0 397.2 L 2.8 402.4 L 3.75 404.75 L 4.7 406.15 L 5.65 407.1 L 6.1 408.05 L 6.1 410.85 L 7.05 411.8 L 7.5 413.7 L 8.45 415.55 L 10.35 418.4 L 10.8 419.3 L 10.8 420.25 L 11.25 420.75 L 12.2 420.75 L 12.7 422.15 L 13.65 423.1 L 17.85 425.9 L 19.75 427.8 L 24.05 428.75 L 25.95 429.65 L 27.85 429.65 L 34.4 433.45 L 38.2 434.85 L 42.4 435.3 L 43.85 433.9 L 46.65 428.25 L 47.6 427.8 L 49 426.85 L 50.4 424.95 L 51.85 423.55 L 52.75 423.1 L 54.2 423.1 L 55.15 422.15 L 55.6 421.2 L 55.6 419.3 L 57 418.85 L 57.5 418.4 L 58.4 416.5 L 58.9 415.1 L 59.85 414.15 L 61.25 413.7 L 62.2 415.1 L 63.6 416.05 L 65 417.45 L 65 421.65 L 63.1 424.05 L 62.65 424.95 L 62.65 425.9 L 63.1 426.85 L 64.55 427.8 L 66.4 427.8 L 71.6 430.15 L 73 431.1 L 74.9 432.05 L 78.65 432.05 L 79.6 431.1 L 80.55 430.6 L 81.45 431.55 L 82.4 432.95 L 83.85 434.4 L 84.75 434.85 L 85.25 434.85 L 86.2 434.4 L 86.65 433.45 L 88.05 433.45 L 89.45 432.5 L 92.75 431.55 L 94.2 430.15 L 96.05 430.15 L 98.9 428.25 L 100.3 427.8 L 101.25 428.25 L 102.2 428.25 L 105.45 427.3 L 107.45 428.25 L 108.4 427.3 L 114.95 427.3 L 115.9 426.85 L 117.35 426.4 L 119.2 425.45 L 119.7 424.95 L 120.6 424.5 L 122.05 423.55 L 122.95 423.1 L 125.8 422.6 L 129.55 421.2 L 130.5 420.25 L 131.45 420.75 L 131.9 420.75 L 132.4 419.8 L 133.8 418.85 L 134.75 418.85 L 145.55 408.95 L 147.45 408.5 L 149.3 407.55 L 150.25 406.6 L 151.2 405.2 L 152.15 401.9 L 153.55 399.1 L 162.5 387.8 L 163.45 383.1 L 164.4 381.2 L 164.85 378.85 L 165.8 377 L 167.2 375.55 L 168.15 374.15 L 168.15 373.7 L 167.65 372.75 L 168.15 372.25 L 168.6 372.25 L 169.1 369 L 172.35 359.95 L 172.35 358.05 L 173.3 353.85 L 173.3 352.9 L 172.85 351.95 L 173.3 351 L 173.3 347.25 L 173.8 346.75 L 174.25 345.85 L 174.75 338.3 L 174.25 335.5 L 175.2 334.55 L 175.65 333.6 L 175.65 328.9 L 176.15 327.5 L 177.1 327 L 176.6 325.15 L 176.6 320.4 L 177.1 317.15 L 177.1 313.85 L 176.6 312.9 L 176.15 311.5 L 176.6 309.15 L 177.55 307.25 L 177.55 304.9 L 176.6 303.95 L 176.15 302.55 L 178 298.3 L 177.55 297.35 L 177.1 295.95 L 176.6 295 L 176.6 294.05 L 178.5 290.3 L 178.5 289.35 L 178 288.45 L 178.95 287 L 178.95 285.15 L 178 278.1 L 178.95 274.8 L 178.5 274.3 L 178.5 272.45 L 178.95 271 L 178.95 270.1 L 178.5 269.6 L 178.5 268.2 L 175.2 258.3 L 173.8 252.2 L 166.25 231.5 L 163.45 225.85 L 162.5 223.05 L 162.95 222.1 L 163.45 221.6 L 162.95 220.2 L 162 219.25 L 161.55 218.3 L 161.55 216.45 L 162.5 215.5 L 163.45 214.1 L 163.45 212.7 L 163.9 211.75 L 163.9 210.8 L 164.4 209.85 L 165.8 208.45 L 165.8 207.5 L 165.3 205.15 L 163.9 208.9 L 162.95 210.8 L 162.5 212.7 L 159.65 215.5 L 159.2 215.5 L 158.75 215.05 L 158.75 213.6 L 158.25 212.2 L 156.85 209.4 L 153.1 204.2 L 153.1 202.8 L 152.6 201.85 L 151.2 199.95 L 149.3 198.55 L 148.4 196.7 L 146.95 195.75 L 146.05 195.25 L 142.75 192 L 141.8 191.5 L 140.4 191.05 L 139.9 190.1 L 139.45 188.7 L 138.5 187.75 L 137.55 187.75 L 132.85 184.9 L 130.95 183.05 L 130.5 182.1 L 130.05 180.7 L 130.95 179.75 L 132.4 179.25 L 131.9 178.35 L 132.4 177.85 L 132.85 176.9 L 132.85 175.5 L 133.3 174.55 L 134.75 174.55 L 135.2 173.15 L 138.05 169.4 L 139.45 167.05 L 140.4 166.1 L 140.4 164.7 L 142.25 164.7 L 143.65 164.2 L 147.9 160.45 L 149.3 160 L 152.6 160 L 153.55 159.5 L 155.45 158.1 L 157.3 157.65 L 158.25 156.7 L 162 152 L 164.85 150.1 L 167.65 145.85 L 167.65 144 L 169.55 140.2 L 170 130.8 L 170.5 128.95 L 169.55 125.65 L 169.55 121.85 L 165.3 114.35 L 161.55 110.6 M 137.55 272.45 L 138.5 275.25 L 138.5 275.75 L 138.05 276.65 L 138.05 282.3 L 138.5 285.15 L 139.45 287.95 L 138.95 291.7 L 138.95 301.6 L 139.9 308.2 L 139.9 311.95 L 139.45 315.25 L 140.4 316.2 L 140.4 317.15 L 139.45 320.9 L 140.4 322.8 L 141.3 337.85 L 140.4 338.3 L 139.9 339.25 L 139.9 340.65 L 140.4 342.55 L 140.4 343 L 139.45 343.95 L 139.9 345.35 L 137.1 353.85 L 137.55 355.25 L 135.2 358.55 L 133.8 362.3 L 130.05 369.45 L 130.05 370.85 L 129.55 371.8 L 126.75 374.6 L 126.25 375.55 L 126.75 377 L 122.95 380.75 L 120.6 385.45 L 116.4 391.55 L 114.05 393.45 L 113.1 393.9 L 112.15 394.85 L 111.2 397.2 L 109.8 399.1 L 108.85 400.05 L 107.9 400.05 L 101.25 408.95 L 100.3 408.95 L 98.9 410.4 L 98.4 411.8 L 97 411.8 L 94.65 414.15 L 91.35 416.5 L 84.3 419.3 L 81.95 418.85 L 81 418.85 L 80.05 419.8 L 70.65 418.4 L 65.95 416.5 L 62.2 413.7 L 62.2 412.75 L 62.65 412.25 L 64.55 409.45 L 65 408.95 L 64.55 408.05 L 65.5 407.55 L 66.4 406.6 L 69.25 401.9 L 70.2 399.55 L 70.2 397.2 L 70.65 396.75 L 73 396.75 L 73.45 395.8 L 72.55 394.85 L 72.55 393.45 L 73.45 392.95 L 74.9 391.55 L 75.85 390.15 L 76.3 389.7 L 76.75 388.75 L 77.7 387.8 L 78.2 385.9 L 78.2 384.5 L 78.65 384.05 L 79.6 384.05 L 81 382.6 L 81 382.15 L 81.45 382.15 L 81.95 382.6 L 82.9 382.15 L 81.95 381.7 L 81.45 380.75 L 81.95 378.85 L 84.3 377 L 85.25 376.05 L 85.25 374.15 L 84.75 373.7 L 84.3 375.1 L 83.85 375.55 L 83.35 375.55 L 82.4 374.6 L 84.75 372.25 L 87.6 372.25 L 88.05 371.8 L 87.6 370.85 L 86.2 370.85 L 86.2 371.8 L 85.25 370.4 L 85.7 369.9 L 86.2 369.9 L 87.1 369.45 L 88.05 369.45 L 88.55 369 L 88.55 367.1 L 89.45 368.05 L 90.9 366.65 L 90.9 365.6 L 90.4 364.65 L 88.55 364.65 L 88.55 363.7 L 91.35 362.3 L 91.8 361.85 L 91.8 362.3 L 92.75 363.25 L 93.25 359.95 L 94.2 356.65 L 95.1 358.55 L 95.6 356.65 L 95.6 355.7 L 94.65 354.75 L 95.1 353.35 L 96.05 351.95 L 96.55 350.55 L 95.6 348.65 L 98.9 348.2 L 100.3 347.7 L 101.25 345.85 L 99.8 345.85 L 100.3 344.4 L 100.3 343.5 L 101.25 343 L 101.25 344.4 L 101.7 345.35 L 103.6 344.4 L 103.6 340.65 L 104.05 340.2 L 104.55 339.25 L 105.45 338.75 L 106.05 337.35 L 106.95 336.4 L 107.45 335 L 106.5 334.05 L 106.5 333.6 L 106.95 333.15 L 107.9 332.65 L 109.35 332.65 L 109.8 332.2 L 109.8 330.3 L 109.35 329.35 L 108.85 327.95 L 109.35 327 L 110.25 325.6 L 110.25 325.15 L 109.8 324.65 L 109.8 324.2 L 111.2 325.6 L 113.1 324.65 L 109.8 322.3 L 111.2 321.35 L 112.6 317.15 L 112.6 315.25 L 114.5 313.35 L 116.4 312.9 L 115.45 311.95 L 115.45 311 L 115.9 309.6 L 116.85 307.7 L 117.35 305.85 L 117.8 305.85 L 118.75 304.9 L 119.2 305.35 L 120.6 303.5 L 121.55 300.2 L 122.5 300.65 L 122.95 300.65 L 122.95 300.2 L 123.45 299.25 L 123.45 296.45 L 123.9 295.5 L 126.75 291.25 L 127.7 288.45 L 127.7 285.15 L 130.05 285.15 L 130.5 283.7 L 130.95 282.8 L 131.9 281.35 L 131.9 279.5 L 133.3 277.6 L 135.2 272.9 L 136.15 271.95 Q 136.6 271.75 137.1 271.5 L 137.55 272.45 M 97.95 312.9 L 97.45 312.4 L 97.45 311.5 L 98.9 308.65 L 98.9 311.95 L 97.95 312.9 M 108.4 322.8 L 109.35 323.7 L 108.4 324.65 L 108.4 322.8"></path><path d="M 365.55 105.4 L 364.15 105.85 L 363.2 107.3 L 362.15 107.3 L 361.7 107.75 L 360.3 107.3 L 351.8 105.4 L 350.9 106.35 L 349.95 106.35 L 348.05 106.8 L 346.65 106.8 L 345.7 107.3 L 344.75 109.15 L 344.3 109.65 L 343.35 110.1 L 342.4 109.15 L 336.3 110.1 L 334.9 110.1 L 333.45 111.05 L 332.55 112 L 331.6 115.3 L 331.6 116.7 L 330.65 118.1 L 329.7 119.05 L 330.2 120 L 329.7 120.95 L 328.75 121.85 L 327.35 122.8 L 326.4 124.2 L 327.35 124.2 L 328.3 123.75 L 330.2 123.75 L 332.05 122.8 L 333.45 122.8 L 334.4 123.3 L 334.9 124.2 L 332.55 127.05 L 332.05 128.45 L 332.05 129.4 L 332.55 130.35 L 326.9 136 L 325 139.3 L 322.2 143.05 L 320.75 144.45 L 318.9 145.4 L 315.6 152.45 L 314.2 152.9 L 314.2 154.35 L 314.65 154.35 L 314.2 154.8 L 313.25 155.3 L 312.3 156.2 L 309.95 160.45 L 309 160.9 L 308.05 161.85 L 298.2 177.4 L 296.3 178.35 L 294.9 179.75 L 293.95 181.15 L 293.5 183.05 L 292.05 186.8 L 289.25 189.6 L 288.8 191.05 L 286.9 192.9 L 285 193.85 L 284.05 195.75 L 279.35 201.4 L 276.9 203.75 L 274.1 205.6 L 274.1 207.05 L 273.15 208.45 L 271.75 209.85 L 264.2 211.75 L 262.35 211.75 L 260.45 212.7 L 260 214.55 L 259.05 215.95 L 257.65 217.4 L 257.15 219.25 L 256.2 221.15 L 254.35 222.1 L 252.45 222.55 L 250.1 222.55 L 249.15 223.5 L 248.2 227.25 L 247.75 228.2 L 246.8 228.7 L 246.35 229.6 L 247.3 231.5 L 247.3 232.45 L 246.35 232.9 L 246.35 233.4 L 245.85 234.8 L 245.4 235.75 L 245.4 236.65 L 244.45 237.15 L 244 245.6 L 243.5 247.5 L 243.5 248.9 L 244.45 254.1 L 244 255.5 L 243.05 257.4 L 243.05 262.55 L 243.5 265.35 L 244.45 268.2 L 248.7 275.25 L 250.55 277.15 L 253.4 277.15 L 255.75 278.1 L 260 280.45 L 261.4 280.45 L 262.35 280.9 L 263.75 281.85 L 265.65 282.8 L 266.55 282.3 L 267.5 280.9 L 268.9 280.9 L 269.85 280.45 L 273.65 277.6 L 276.45 277.15 L 277.5 275.25 L 278.9 273.85 L 285.95 268.2 L 287.35 266.8 L 288.3 264.45 L 290.2 264.45 L 291.6 263.5 L 294.4 262.1 L 295.35 262.55 L 296.75 262.1 L 298.2 261.15 L 303.85 255.5 L 304.75 255.95 L 307.15 255.95 L 308.55 255.5 L 309.5 255.5 L 311.35 255.95 L 313.25 255 L 317.5 256.9 L 325.45 259.25 L 329.25 262.1 L 329.7 263.5 L 330.2 264.45 L 332.05 266.8 L 331.1 268.65 L 332.05 270.55 L 332.55 272.9 L 333 273.85 L 332.55 274.8 L 333 276.2 L 333 276.65 L 332.55 277.15 L 332.55 282.8 L 331.6 288.45 L 332.55 289.85 L 333 291.25 L 333 294.05 L 332.55 297.35 L 333.45 300.2 L 333.95 307.25 L 332.05 330.75 L 331.1 344.9 L 331.6 345.85 L 331.6 346.75 L 330.65 350.05 L 330.65 350.55 L 331.1 351.5 L 329.7 357.6 L 328.3 378.85 L 328.75 379.8 L 328.75 380.75 L 327.85 384.5 L 327.35 385.45 L 327.85 385.9 L 326.9 404.75 L 324.05 422.6 L 323.1 424.5 L 323.6 426.4 L 323.6 428.75 L 323.1 429.65 L 322.2 430.15 L 322.65 431.1 L 323.1 431.55 L 322.65 432.95 L 321.7 434.4 L 321.7 435.3 L 322.2 435.8 L 322.2 437.65 L 321.7 438.6 L 320.3 438.6 L 319.85 437.65 L 318.9 436.75 L 317.5 436.75 L 316.55 436.25 L 314.65 434.85 L 312.3 433.9 L 309.95 433.9 L 309 432.5 L 308.55 432.05 L 309 431.55 L 308.05 431.55 L 308.05 432.05 L 304.75 427.3 L 300.55 423.1 L 299.6 423.1 L 300.05 424.5 L 301 426.4 L 302.4 427.8 L 303.85 428.75 L 301.5 432.05 L 301 431.1 L 300.05 431.1 L 299.15 430.15 L 299.15 431.55 L 300.05 432.05 L 300.05 432.5 L 299.15 433.45 L 298.65 434.4 L 298.2 434.85 L 298.65 435.3 L 296.3 433.45 L 294.9 433.9 L 293.95 433.9 L 292.05 432.95 L 289.25 429.65 L 286.9 428.75 L 285 427.3 L 282.2 424.05 L 281.25 423.55 L 281.25 422.6 L 280.8 421.65 L 279.85 421.65 L 279.85 422.6 L 280.3 423.1 L 279.35 424.05 L 282.2 426.85 L 282.2 427.8 L 281.7 428.75 L 280.3 430.6 L 282.65 432.95 L 281.7 433.9 L 281.7 434.85 L 282.65 436.75 L 284.05 438.6 L 284.55 439.55 L 284.55 440.5 L 284.05 441.9 L 284.05 442.85 L 285 444.75 L 286.9 446.6 L 287.85 448.5 L 290.65 449.45 L 291.6 449.9 L 292.05 451.3 L 292.05 453.65 L 293 456 L 301 465.45 L 302.9 468.25 L 305.25 470.6 L 305.25 472.5 L 306.2 473.9 L 309.5 475.3 L 313.25 479.55 L 313.7 481.45 L 315.6 482.35 L 316.55 484.25 L 317 486.6 L 317.95 488.5 L 321.7 490.35 L 323.6 492.25 L 328.3 501.65 L 330.65 504.95 L 332.05 506.35 L 333.95 507.3 L 334.9 509.2 L 338.2 511.55 L 340.05 512 L 341.95 511.05 L 343.35 509.65 L 347.1 503.55 L 349.45 500.25 L 352.3 499.8 L 354.65 498.85 L 357 496.95 L 358.9 494.6 L 360.75 490.85 L 363.2 487.55 L 366.05 482.35 L 366.5 480.5 L 368.4 476.25 L 371.2 466.85 L 371.7 464.5 L 373.1 462.6 L 372.6 461.2 L 372.15 460.25 L 372.6 457.9 L 373.55 455.55 L 373.1 454.6 L 372.6 453.2 L 373.55 448.95 L 373.55 432.5 L 373.1 431.55 L 373.1 430.6 L 374.05 427.3 L 373.55 425.45 L 373.55 424.5 L 373.1 423.1 L 373.1 422.15 L 373.55 420.75 L 373.1 419.3 L 372.6 395.8 L 373.1 389.7 L 372.6 388.25 L 372.6 387.35 L 373.55 382.6 L 373.55 380.25 L 376.4 365.1 L 376.4 360.4 L 377.8 350.05 L 377.8 347.25 L 377.3 344.4 L 378.25 342.55 L 378.75 339.7 L 378.25 334.05 L 377.3 332.2 L 376.85 330.3 L 376.4 318.05 L 374.5 311.5 L 374.05 308.2 L 373.1 304.9 L 373.1 300.2 L 374.05 295.95 L 373.55 294.55 L 373.55 292.65 L 374.95 286.55 L 374.95 283.25 L 369.8 270.1 L 363.2 261.6 L 360.3 259.25 L 353.7 255 L 354.2 256.9 L 355.1 258.3 L 355.6 260.2 L 355.6 261.15 L 355.1 262.1 L 354.65 261.6 L 349.45 255.95 L 348.55 256.9 L 348.55 258.3 L 351.35 263.5 L 350.4 263.5 Q 349.95 263.75 349.45 263.95 L 348.55 260.65 L 335.35 253.15 L 334.4 253.6 L 336.3 254.1 L 337.7 255 L 340.05 257.4 L 339.6 257.85 L 339.1 257.4 L 335.85 257.4 L 335.35 256.9 L 334.9 255.95 L 333.95 255.95 L 332.55 255.5 L 330.65 254.55 L 328.75 253.15 L 327.85 252.65 L 326.9 252.65 L 327.35 252.2 L 328.3 251.75 L 332.05 252.65 L 333.95 252.65 L 333 251.75 L 332.05 251.75 L 331.1 252.2 L 330.2 250.3 L 324.05 249.85 L 324.55 250.3 L 325.45 251.75 L 324.55 252.65 L 323.6 252.2 L 320.75 252.2 L 319.85 253.15 L 312.75 252.2 L 313.25 251.25 L 314.2 250.8 L 317.5 249.85 L 318.4 249.4 L 318.9 248.45 L 320.3 248.45 L 320.3 249.85 L 321.25 250.3 L 321.7 250.3 L 322.65 249.4 L 323.1 247.95 L 323.6 247 L 325 246.55 L 325.95 247 L 327.35 247 L 327.85 246.55 L 328.3 245.6 L 329.7 246.1 L 330.65 246.1 L 334.9 244.2 L 335.85 244.2 L 337.25 244.65 L 339.1 242.8 L 341.95 240.45 L 342.4 240.45 L 342.9 240.9 L 343.35 241.85 L 343.35 239.95 L 344.3 239.05 L 346.2 236.65 L 347.6 238.55 L 349.45 238.55 L 351.35 239.05 L 351.35 239.95 L 350.4 240.45 L 350.4 239.95 L 349.45 239.95 L 349 240.9 L 349 241.85 L 349.95 241.85 L 350.4 240.9 L 351.8 240.9 L 352.75 241.4 L 353.25 242.3 L 354.2 242.8 L 355.6 242.3 L 356.55 241.85 L 362.65 241.85 L 364.15 241.4 L 365.1 240.45 L 366.95 240.9 L 368.4 240.45 L 373.55 237.6 L 374.95 237.15 L 376.85 237.6 L 378.25 236.65 L 382.05 235.75 L 383.45 234.3 L 384.4 235.25 L 384.85 235.25 L 386.25 234.3 L 387.2 232.9 L 395.2 230.1 L 399.45 227.75 L 402.75 224.9 L 403.65 225.4 L 404.6 225.4 L 405.55 223.95 L 406.5 223.5 L 406.95 223.5 L 407.9 223.95 L 411.2 223.05 L 414.95 223.05 L 418.75 222.1 L 420.15 222.1 L 422 222.55 L 431.45 217.85 L 433.8 215.5 L 439.9 203.75 L 440.35 199.5 L 439.9 195.25 L 439.45 193.4 L 437.55 189.6 L 436.15 188.2 L 434.25 188.2 L 424.85 185.4 L 422.95 185.4 L 421.55 186.35 L 420.6 187.25 L 419.2 188.2 L 418.25 188.2 L 417.8 187.75 L 414 187.25 L 410.75 188.2 L 407.45 189.6 L 404.15 192 L 402.75 191.05 L 401.8 191.05 L 400.4 191.5 L 399.45 191.5 L 395.2 194.35 L 394.25 194.35 L 392.85 194.8 L 391.45 195.75 L 389.55 196.2 L 388.15 196.2 L 387.2 195.75 L 375.9 199.95 L 372.6 201.85 L 368.85 201.85 L 367.45 202.35 L 365.55 203.75 L 363.7 203.75 L 361.7 204.2 L 359.8 205.15 L 357 205.15 L 353.7 206.1 L 350.9 207.5 L 349.45 207.5 L 347.6 208.45 L 345.7 208.9 L 341.45 208.9 L 336.75 210.8 L 331.6 211.75 L 330.65 211.75 L 329.7 212.2 L 329.25 212.2 L 328.3 211.75 L 324.05 213.15 L 321.7 213.6 L 320.75 213.6 L 319.35 213.15 L 324.05 208.9 L 326.4 207.95 L 326.4 206.1 L 327.35 204.7 L 328.75 203.75 L 329.7 202.8 L 333 200.9 L 335.35 199.05 L 336.75 197.15 L 338.65 193.4 L 339.6 192.9 L 340.55 192.9 L 349 181.15 L 357.95 170.35 L 357.95 168.9 L 358.9 168 L 361.7 165.65 L 361.7 164.2 L 363.7 160.9 L 364.15 159.5 L 365.1 159.05 L 365.1 158.1 L 366.05 156.2 L 366.5 153.85 L 366.95 152.9 L 368.85 152 L 370.25 150.55 L 370.25 148.7 L 370.75 148.2 L 371.7 147.75 L 374.5 142.1 L 376.4 139.75 L 378.75 137.85 L 378.75 136.95 L 379.2 136 L 380.15 134.6 L 381.55 133.15 L 381.55 130.8 L 382.95 129.4 L 386.25 124.2 L 385.3 123.3 L 384.85 121.85 L 384.85 120.95 L 385.3 119.5 L 385.8 118.6 L 386.25 117.15 L 385.8 116.25 L 384.85 114.8 L 383.45 113.85 L 382.5 112.95 L 381.55 111.5 L 380.15 110.1 L 373.55 108.7 L 369.8 107.3 L 366.95 105.4 L 365.55 105.4 M 352.3 236.2 L 352.75 235.75 L 353.7 236.2 L 353.7 237.15 L 353.25 237.15 L 352.3 236.2 M 352.3 238.1 L 351.8 238.55 L 351.35 238.1 L 351.35 237.6 L 351.8 237.15 L 352.3 237.15 L 352.3 238.1 M 344.3 241.85 L 343.35 241.85 L 343.8 242.3 L 343.8 242.8 L 344.3 242.8 L 344.3 241.85 M 307.15 433.45 L 305.25 432.5 L 305.7 432.05 L 306.2 432.05 L 307.6 432.5 L 307.15 433.45"></path><path d="M 322.65 126.1 L 323.1 125.65 L 322.65 125.15 L 322.2 125.65 L 322.2 126.1 L 322.65 126.1"></path><path d="M 318.4 128.45 L 318.4 128 L 317.95 128 L 317.5 128.45 L 318.4 128.45"></path><path d="M 316.55 129.4 L 316.55 128.95 L 315.6 128.95 L 315.6 129.4 L 316.55 129.4"></path><path d="M 311.85 132.7 L 312.75 132.7 L 313.7 131.3 L 314.65 130.8 L 314.65 129.85 L 314.2 129.85 L 311.85 132.7"></path><path d="M 114.05 131.75 L 114.05 132.2 L 114.5 132.2 L 114.5 131.75 L 114.05 131.75"></path><path d="M 493.65 154.35 L 491.75 154.8 L 489.85 155.75 L 487.05 159.05 L 484.7 160.45 L 481.85 164.2 L 478.6 166.55 L 477.15 167.05 L 473.4 167.5 L 468.2 172.7 L 468.2 178.35 L 470.1 179.25 L 471.05 180.2 L 471.5 181.65 L 472.95 182.1 L 473.85 182.1 L 474.35 181.65 L 474.8 182.55 L 475.75 183.05 L 476.2 183.5 L 478.1 183.5 L 478.6 184.45 L 479.5 185.4 L 485.15 189.15 L 486.55 189.6 L 487.5 190.55 L 488.95 191.05 L 489.85 190.55 L 493.15 193.85 L 495.5 197.15 L 497.85 197.15 L 499.75 198.55 L 501.15 199.95 L 503.05 200.9 L 503.5 202.35 L 504 202.8 L 507.75 204.7 L 508.2 205.6 L 508.7 206.1 L 510.1 206.55 L 511.05 207.05 L 512.9 208.45 L 514.8 210.35 L 515.75 210.8 L 517.15 210.8 L 519.05 211.25 L 520.45 210.8 L 522.35 209.85 L 524.2 209.4 L 526.55 206.1 L 534.1 197.6 L 534.65 194.8 L 533.6 189.6 L 529.85 181.65 L 526.1 177.4 L 525.15 176.9 L 524.7 176.45 L 524.2 175.5 L 523.75 174.1 L 522.8 173.15 L 518.1 170.35 L 516.2 168.45 L 514.8 165.65 L 513.85 165.65 L 512.9 164.7 L 511.5 162.35 L 509.65 160.45 L 508.7 159.05 L 507.75 158.55 L 507.75 157.65 L 507.3 157.15 L 505.85 156.2 L 504.45 156.2 L 503.5 155.3 L 502.1 156.2 L 501.15 156.2 L 498.8 155.75 L 495.05 154.35 L 493.65 154.35"></path><path d="M 334.9 246.55 L 335.35 246.55 L 335.35 247 L 336.3 246.55 L 335.85 246.1 L 335.35 246.1 L 334.9 246.55"></path><path d="M 347.1 254.55 L 347.1 254.1 L 346.65 255 L 347.1 255.5 L 348.05 255.5 L 347.1 254.55"></path><path d="M 135.2 275.25 L 135.65 275.25 L 135.65 274.3 L 135.2 274.3 L 135.2 275.25"></path><path d="M 119.7 307.7 L 120.15 307.25 L 120.15 306.8 L 119.7 305.85 L 119.2 306.8 L 119.2 307.25 L 119.7 307.7"></path><path d="M 113.1 323.7 L 113.55 323.7 L 113.55 323.25 L 113.1 323.25 L 113.1 323.7"></path><path d="M 428.6 362.75 L 428.15 364.65 L 428.6 367.1 L 428.6 372.25 L 429.1 374.15 L 430 376.05 L 430 377 L 429.55 378.4 L 429.1 388.75 L 428.6 389.7 L 428.6 390.6 L 429.1 392.05 L 430 393.45 L 430 393.9 L 429.1 394.85 L 430 395.8 L 430 399.1 L 428.15 403.35 L 429.1 403.8 L 429.55 404.25 L 430 405.2 L 430.5 405.7 L 430.95 410.85 L 434.25 427.3 L 434.75 428.25 L 433.8 429.2 L 436.6 435.8 L 437.55 439.1 L 438.95 442.4 L 439.9 443.3 L 440.35 444.25 L 440.85 446.6 L 440.85 448.95 L 441.8 451.3 L 440.85 452.25 L 440.85 452.75 L 441.8 453.65 L 442.7 452.25 L 446.95 449.45 L 449.4 450.4 L 454.1 450.4 L 456.45 449.9 L 458.8 448.95 L 462.6 446.15 L 464 444.25 L 466.35 444.25 L 470.1 442.4 L 477.15 434.85 L 478.6 434.4 L 479.5 432.95 L 480.45 430.15 L 480.45 426.85 L 481.4 423.55 L 480.95 422.15 L 480.95 421.2 L 481.85 418.85 L 482.35 416.05 L 482.35 415.1 L 481.85 413.7 L 482.8 413.2 L 482.8 411.8 L 482.35 411.3 L 481.85 409.9 L 481.85 408.95 L 482.35 408.05 L 480.45 401.9 L 479.05 399.1 L 476.7 392.95 L 474.35 390.15 L 470.6 384.5 L 468.7 384.05 L 463.05 379.35 L 460.7 378.4 L 458.35 378.4 L 457.4 377 L 455.5 375.55 L 453.65 374.6 L 451.75 374.15 L 450.8 375.1 L 449.9 375.55 L 449.4 375.1 L 448.35 374.6 L 446.95 373.7 L 446 373.7 L 445.1 374.15 L 444.15 373.2 L 442.7 372.25 L 439.9 371.35 L 437.55 369.9 L 436.6 369 L 436.15 367.55 L 434.75 367.1 L 433.8 367.1 L 431.9 365.6 L 430.5 363.7 L 428.6 362.75"></path><path d="M 252.45 364.2 L 252.45 364.65 L 252.9 364.65 L 252.9 364.2 L 252.45 364.2"></path><path d="M 240.2 372.75 L 238.8 373.2 L 236.95 376.05 L 236.45 377.45 L 236.95 378.85 L 236 379.35 L 235.05 380.25 L 234.1 380.75 L 232.7 380.75 L 232.7 382.6 L 233.15 383.55 L 231.3 385.45 L 230.35 385.45 L 229.85 386.85 L 230.35 387.8 L 230.35 389.7 L 229.85 390.15 L 228.95 390.15 L 228 389.2 L 227.5 389.2 L 226.6 389.7 L 226.1 390.15 L 226.1 392.95 L 225.65 394.4 L 226.1 395.35 L 226.1 396.25 L 225.15 397.2 L 224.2 398.6 L 223.75 399.1 L 223.75 400.05 L 224.7 400.5 L 225.15 401.45 L 225.15 402.4 L 224.2 403.8 L 223.75 400.5 L 222.8 401.9 L 221.4 402.85 L 220.45 403.8 L 220.45 404.75 L 221.4 405.2 L 219.5 405.2 L 219.5 407.1 L 219.05 407.55 L 217.65 407.1 L 216.7 408.95 L 216.2 409.45 L 216.2 410.4 L 213.4 413.2 L 213.4 414.15 L 214.35 414.15 L 214.35 416.95 L 215.3 418.4 L 216.7 418.85 L 217.65 419.8 L 218.1 421.2 L 218.1 422.15 L 219.05 422.15 L 220 425.45 L 220.95 426.85 L 222.35 427.8 L 223.75 427.8 L 225.15 428.75 L 226.6 429.2 L 228.45 428.25 L 228.95 430.15 L 229.4 430.6 L 231.3 429.65 L 231.75 429.2 L 233.15 429.2 L 234.1 428.75 L 234.55 428.25 L 235.05 427.3 L 236.95 427.8 L 238.35 427.8 L 238.35 426.85 L 238.8 426.4 L 239.75 425.9 L 240.2 425.9 L 241.65 427.3 L 242.55 425.45 L 243.5 426.4 L 244.95 426.85 L 247.75 426.4 L 248.7 424.5 L 249.65 423.1 L 250.1 422.15 L 250.1 420.25 L 249.15 419.3 L 250.1 418.4 L 252 418.4 L 252 417.9 L 253.85 415.55 L 255.3 415.1 L 256.7 415.1 L 258.1 412.75 L 259.05 411.8 L 260 411.8 L 260 410.4 L 260.9 409.9 L 262.35 409.45 L 262.8 408.95 L 263.25 408.05 L 262.8 407.1 L 262.35 406.6 L 262.8 405.2 L 263.75 403.8 L 263.75 402.4 L 264.7 401.9 L 264.7 400.05 L 265.15 398.6 L 265.65 398.15 L 266.55 397.7 L 266.1 396.25 L 266.1 395.35 L 265.15 394.85 L 267.5 394.4 L 268.45 393.9 L 268.45 392.5 L 268 392.05 L 268 391.1 L 268.45 389.7 L 269.85 387.8 L 269.85 386.4 L 269.4 385 L 265.65 380.75 L 263.25 378.85 L 262.35 377 L 261.4 376.05 L 255.3 372.25 L 253.85 370.85 L 253.4 369 L 252.9 368.5 L 252.45 367.55 L 252.45 368.05 L 251.5 369 L 251.05 370.4 L 250.55 370.85 L 250.55 371.8 L 249.15 371.8 L 247.3 372.25 L 245.85 372.25 L 244.45 371.8 L 244.45 372.75 L 244 372.75 L 243.5 371.8 L 242.1 371.35 L 241.15 371.8 L 240.2 372.75 M 252.45 366.65 L 252 367.1 L 252.45 367.55 L 252.45 366.65 M 263.75 395.8 L 263.25 395.8 L 263.25 395.35 L 263.75 395.35 L 263.75 395.8"></path><path d="M 244 370.4 L 244 371.8 L 244.45 371.8 L 244.45 370.85 L 244 370.4"></path><path d="M 20.8 385.45 L 20.8 384.5 L 20.3 384.05 L 19.75 384.5 L 20.3 385.9 L 20.8 385.45"></path><path d="M 299.6 422.15 L 299.6 420.75 L 298.65 419.3 L 296.75 417.9 L 297.7 420.25 L 299.6 422.15"></path><path d="M 57.5 423.1 L 57.95 423.1 L 57.95 422.6 L 57.5 422.6 L 57.5 423.1"></path><path d="M 286.4 424.95 L 286.4 425.45 L 286.9 425.45 L 286.9 424.95 L 286.4 424.95"></path></g><g transform="scale(0.1714,0.1714) translate(724,63)"><path d="M 324.7 6.8 L 324.7 5.8 L 321.8 1.95 L 319.85 0.5 L 318.4 0.5 L 316.95 0 L 309.15 2.4 L 293.15 4.35 L 285.9 6.8 L 286.4 7.75 L 292.7 11.15 L 293.65 12.6 L 293.65 14.45 L 292.7 17.35 L 291.7 18.8 L 289.8 20.75 L 281.55 26.55 L 279.1 29 L 277.2 32.35 L 275.7 32.35 L 274.25 32.85 L 272.35 34.8 L 270.9 37.2 L 261.55 45.95 L 248.95 60.95 L 244.1 69.7 L 239.25 73.5 L 230.05 88 L 229.1 89.95 L 228.1 91.4 L 223.25 96.75 L 222.3 98.2 L 221.8 99.65 L 205.35 119.05 L 200.95 126.3 L 200.5 129.25 L 198.55 132.05 L 194.2 136.9 L 186.9 143.2 L 185.45 146.1 L 175.65 157.75 L 165 167.9 L 162.6 171.8 L 155.8 178.6 L 140.75 189.7 L 137.85 192.55 L 144.15 191.55 L 150.45 189.7 L 163.05 183.4 L 166.45 182.95 L 169.85 181.95 L 182.55 176.15 L 185.95 175.2 L 189.35 174.7 L 195.15 180.05 L 198.05 187.3 L 202.45 195.95 L 203.4 198.35 L 203.9 201.25 L 204.85 202.25 L 204.85 205.15 L 205.35 206.1 L 205.8 206.6 L 205.35 210 L 205.8 212.9 L 206.8 215.8 L 209.7 221.15 L 210.65 224.05 L 210.65 226.95 L 210.2 229.85 L 213.1 251.1 L 215.05 273.4 L 214.55 276.3 L 213.1 280.65 L 213.1 282.1 L 213.6 283.1 L 215.05 284.55 L 216.5 285.05 L 222.3 290.85 L 223.75 291.35 L 238.8 304.9 L 242.65 310.6 L 242.65 312.55 L 243.15 315 L 243.15 317.4 L 242.65 318.4 L 241.7 319.35 L 237.8 320.3 L 234.9 322.25 L 230.05 324.2 L 228.1 324.2 L 221.35 327.1 L 203.9 330 L 200.5 331 L 195.65 331.45 L 173.75 337.75 L 164.5 338.75 L 157.25 340.7 L 141.75 343.1 L 133.5 343.1 L 132.55 344.05 L 131.05 345.05 L 124.3 347 L 122.35 347.95 L 120.9 348.9 L 119.45 349.4 L 116.05 351.35 L 112.15 355.2 L 115.1 356.2 L 115.55 357.15 L 116.05 357.65 L 115.1 359.6 L 113.6 360.05 L 112.65 359.6 L 111.7 359.6 L 111.2 357.65 L 110.25 357.15 L 109.25 357.15 L 108.3 357.65 L 105.4 358.6 L 104.4 359.1 L 102.95 358.6 L 100.55 356.65 L 97.15 355.7 L 90.75 355.7 L 87.35 356.2 L 77.65 359.6 L 64.1 360.05 L 60.2 358.15 L 61.15 355.7 L 62.6 354.25 L 64.1 352.3 L 71.85 346.5 L 73.3 345.05 L 75.25 342.6 L 79.1 339.7 L 81.55 338.25 L 91.25 334.4 L 92.3 333.4 L 99.1 331 L 100.55 330 L 101 329.05 L 96.15 329.55 L 91.25 331 L 82.5 335.35 L 64.1 334.4 L 55.35 335.35 L 46.65 337.3 L 31.6 335.35 L 27.25 337.3 L 22.85 338.25 L 20.45 339.2 L 19 340.2 L 17.05 342.15 L 16.1 344.05 L 15.1 347 L 10.75 354.75 L 6.9 359.1 L 3.95 364.45 L 3.95 365.9 L 4.45 367.75 L 4.45 370.65 L 3.95 371.6 L 4.45 373.55 L 2.9 379.85 L 0.95 383.7 L 0.5 385.65 L 0.5 387.6 L 0 389.55 L 0.5 391.5 L 1.45 393.4 L 2.4 394.85 L 5.9 397.3 L 8.8 400.2 L 22.85 404.1 L 26.75 404.55 L 34 404.55 L 37.4 404.1 L 40.8 405.05 L 44.2 405.55 L 50.5 405.55 L 56.3 404.1 L 73.75 397.3 L 84.45 393.9 L 88.8 390.5 L 98.1 385.2 L 102.95 383.25 L 123.3 377.4 L 124.75 375.5 L 126.7 374.05 L 130.6 372.1 L 148.5 368.7 L 152.9 367.25 L 156.75 365.4 L 159.2 365.9 L 161.15 365.4 L 169.85 364.45 L 174.2 365.4 L 174.7 367.75 L 174.2 369.65 L 173.25 371.6 L 171.3 372.55 L 170.35 374.5 L 168.4 376.45 L 166.45 377.9 L 160.15 380.8 L 158.2 382.25 L 156.3 384.2 L 151.9 387.1 L 150.45 389.05 L 148.05 391 L 145.15 394.85 L 137.35 400.7 L 135.9 402.65 L 134.95 405.05 L 130.6 408.95 L 118.95 423.45 L 117.5 423.95 L 116.55 424.45 L 110.7 431.15 L 108.75 432.1 L 107.3 433.55 L 107.3 437.45 L 108.75 441.8 L 108.75 446.15 L 107.3 447.6 L 106.35 449.55 L 106.35 453.45 L 107.3 462.15 L 106.35 463.6 L 105.85 465.05 L 107.3 469.9 L 107.3 471.35 L 106.85 473.3 L 105.85 475.25 L 106.85 477.65 L 107.3 480.1 L 108.3 482.05 L 108.75 482.5 L 110.25 483.5 L 111.7 484.85 L 112.65 487.25 L 113.15 489.7 L 112.65 493.1 L 114.6 494.05 L 116.05 495 L 121.85 501.8 L 123.3 502.8 L 125.25 503.75 L 129.6 508.1 L 132.55 509.55 L 138.35 511.5 L 141.25 512 L 144.15 512 L 147.05 511.5 L 153.35 506.65 L 155.3 503.75 L 161.6 486.8 L 161.15 485.35 L 161.15 481.55 L 161.6 478.65 L 161.6 475.75 L 160.15 472.8 L 156.3 467.5 L 154.85 464.6 L 154.85 462.15 L 154.35 459.75 L 151.45 451 L 151.9 439.35 L 152.9 433.05 L 156.75 421.05 L 159.65 415.25 L 170.8 399.25 L 172.75 398.25 L 174.2 396.35 L 177.6 392.95 L 180.6 389.05 L 184.5 386.15 L 187.9 381.3 L 196.15 372.55 L 201.95 368.2 L 205.8 363.95 L 207.3 362 L 208.75 361.05 L 210.65 360.05 L 213.1 359.6 L 214.55 357.65 L 227.15 351.85 L 230.55 348.45 L 235.9 346.5 L 240.7 345.55 L 243.65 344.55 L 245.55 343.1 L 247.5 340.7 L 250.9 341.15 L 254.3 341.15 L 260.6 339.2 L 266.9 336.3 L 273.8 334.4 L 275.25 334.85 L 277.65 334.85 L 279.6 334.4 L 281.05 333.4 L 299 329.55 L 301.9 329.55 L 305.8 328.05 L 313.05 326.15 L 316.95 326.15 L 318.85 328.55 L 321.3 330.5 L 323.25 332.9 L 324.7 335.35 L 328.55 336.3 L 331.95 336.3 L 334.85 335.35 L 337.75 333.4 L 347.95 324.2 L 350.85 318.85 L 355.7 315 L 366.95 311.1 L 374.7 307.7 L 391.7 305.4 L 396.05 304.4 L 402.85 301.5 L 419.3 299.55 L 425.6 297.65 L 434.8 296.65 L 457.7 290.35 L 462.55 289.9 L 505.7 292.8 L 528.5 299.55 L 535.85 302.95 L 537.8 303.45 L 541.65 303.45 L 547 300.55 L 549.9 298.1 L 550.85 293.25 L 550.85 290.35 L 549.9 285.5 L 547.95 280.65 L 546.5 278.75 L 545.55 276.3 L 544.1 274.35 L 540.2 271.45 L 533.9 268.05 L 531.85 266.6 L 506.65 261.75 L 503.25 260.3 L 499.4 261.25 L 482.9 269.05 L 474.2 271.95 L 469.8 271.95 L 464.95 274.85 L 454.8 277.75 L 451.9 278.25 L 449.45 279.7 L 448.5 279.2 L 447.5 279.7 L 443.05 280.65 L 441.6 280.65 L 440.65 280.2 L 436.75 282.1 L 424.15 285.5 L 406.7 287.95 L 394.1 290.35 L 386.85 290.85 L 380.05 290.35 L 377.15 286.95 L 376.65 286 L 376.65 284.55 L 380.05 278.25 L 382.45 275.35 L 390.7 260.3 L 395.05 254.5 L 402.35 241 L 405.25 236.65 L 404.75 226 L 403.8 220.65 L 402.35 218.25 L 400.4 216.3 L 396.5 200.3 L 396.5 194.5 L 398 183.9 L 403.3 174.2 L 406.7 171.3 Q 410.6 169.35 414.45 167.45 L 427.05 163.05 L 430.95 161.1 L 435.3 158.2 L 446.05 152.9 L 448.5 150.95 L 450.45 148.5 L 453.35 143.2 L 450.9 139.8 L 449.45 138.35 L 447.5 137.85 L 446.55 136.4 L 445.1 134.95 L 441.6 133 L 438.2 132.05 L 434.35 131.55 L 419.3 132.05 L 416.4 132.5 L 404.75 132.5 L 399.9 134.45 L 398 136.4 L 379.55 142.7 L 362.6 150.95 L 350.4 154.8 L 346 155.8 L 328.55 163.55 L 323.25 167.45 L 319.85 167.9 L 316.45 168.9 L 310.15 171.8 L 300.95 177.6 L 298 179.05 L 296.55 180.5 L 295.1 181 L 292.2 182.45 L 288.8 183.4 L 287.85 184.4 L 286.85 185.85 L 284.95 186.8 L 283.5 187.8 L 279.6 194 L 278.15 195.95 L 276.2 196.9 L 282.05 195.95 L 293.65 195.95 L 304.8 197.4 L 316.45 196.9 L 330 192.55 L 352.3 187.8 L 368.4 180.05 L 372.3 177.6 L 374.25 177.6 L 381 176.15 L 384.9 176.15 L 386.35 177.1 L 388.3 179.05 L 388.3 184.9 L 381.5 199.8 L 374.7 208.55 L 368.9 218.25 L 366.45 220.15 L 363.55 225 L 362.6 227.45 L 360.15 231.8 L 359.2 234.25 L 357.25 236.15 L 357.25 239.55 L 354.25 245.35 L 353.75 246.85 L 353.75 248.75 L 350.85 251.6 L 348.9 254.95 L 339.7 276.3 L 337.75 279.2 L 334.85 287.45 L 333.9 289.4 L 332.45 291.35 L 332.45 292.8 L 331.95 294.25 L 327.6 301 L 326.15 302.5 L 324.7 303.45 L 321.3 304.4 L 313.55 304.4 L 309.15 306.35 L 299.95 308.2 L 295.1 308.2 L 282.5 312.55 L 268.95 313.05 L 265.95 314.5 L 263.5 315 L 260.6 315 L 259.65 314.5 L 258.2 313.05 L 257.7 306.35 L 258.65 292.8 L 258.2 285.5 L 259.65 284.05 L 260.1 282.1 L 260.1 280.2 L 257.2 270 L 256.7 265.65 L 255.75 261.75 L 252.85 254 L 252.85 249.65 L 252.35 247.8 L 251.4 246.35 L 250.9 243.45 L 250.9 240.55 L 252.35 231.8 L 251.85 229.4 L 250.9 226.95 L 248.95 225 L 246.55 225 L 243.65 223.1 L 240.7 218.7 L 237.35 210.45 L 234.4 206.6 L 231.05 203.2 L 229.1 200.8 L 228.1 198.35 L 226.2 197.4 L 225.2 195.95 L 220.35 189.7 L 217.95 187.3 L 216.5 184.9 L 212.1 181 L 209.7 179.55 L 205.35 176.15 L 203.4 174.2 L 201.95 171.3 L 201.95 165.95 L 203.4 164.5 L 225.2 149.95 L 231.5 148.05 L 237.8 145.15 L 249.45 138.35 L 254.8 136.9 L 254.8 135.45 L 257.2 136.4 L 259.65 136.4 L 263.5 134.45 L 267.4 131.55 L 271.85 129.7 L 276.2 128.75 L 277.65 129.25 L 279.1 130.7 L 279.1 132.05 L 278.15 134.45 L 276.7 136.4 L 275.25 137.85 L 272.8 139.3 L 266.4 144.15 L 261.1 149.95 L 266.9 149 L 272.35 147.05 L 282.05 145.6 L 285.4 146.1 L 287.35 144.65 L 289.8 143.65 L 302.85 141.25 L 326.15 135.45 L 330.5 133.5 L 340.7 122.45 L 345.05 115.65 L 351.35 100.15 L 352.8 91.4 L 352.3 76.4 L 347.95 61.45 L 347.95 60.5 L 345.55 58.05 L 344.55 56.6 L 344.55 54.65 L 342.15 51.75 L 336.3 42.55 L 333.9 35.75 L 331.95 26.55 L 327.6 14.9 L 327.6 9.7 L 324.7 6.8"></path><path d="M 411.55 368.7 L 412.5 369.2 L 414.45 369.65 L 415.45 370.15 L 416.4 371.1 L 417.35 374.05 L 419.3 376.45 L 420.3 379.35 L 420.3 380.8 L 419.8 382.75 L 420.3 386.15 L 420.3 389.05 L 414.95 407 L 414.45 407.95 L 413.5 408.95 L 413 411.85 L 411.55 414.75 L 410.1 415.7 L 409.15 419.6 L 407.65 423 L 405.25 426.3 L 396.5 434.05 L 391.7 439.85 L 389.25 440.35 Q 388.3 440.85 387.3 441.3 L 385.85 442.3 L 383.9 444.2 L 380.05 447.15 L 371.3 451.5 L 366 452.95 L 379.05 450.05 L 409.6 449.05 L 412.5 449.55 L 426.6 451 L 429 451.5 L 431.45 452.95 L 434.35 453.9 L 437.25 454.4 L 440.15 455.35 L 441.6 456.35 L 442.6 457.8 L 447.5 459.75 L 455.75 467 L 458.65 471.35 L 463.5 473.3 L 468.35 474.3 L 477.6 473.8 L 487.25 471.35 L 496 467.5 L 500.85 462.65 L 502.8 460.2 L 506.2 453.9 L 507.15 450.5 L 507.65 447.15 L 507.65 444.2 L 509.1 430.65 L 508.1 423.95 L 506.2 418.15 L 506.2 415.7 L 502.3 406.5 L 501.35 402.15 L 498.4 397.3 L 494.55 392.45 L 488.25 387.6 L 485.35 386.15 L 482.9 385.65 L 480.5 384.7 L 475.65 381.8 L 463.5 372.1 L 460.1 368.2 L 451.9 363 L 448.5 362 L 444.5 362.5 L 441.1 363.45 L 437.75 364.9 L 410.1 366.35 L 410.6 367.75 L 411.55 368.7"></path></g></g></svg>